<?xml version="1.0" encoding="utf-8"?>
<!-- Generator: Adobe Illustrator 27.5.0, SVG Export Plug-In . SVG Version: 6.00 Build 0)  -->
<svg version="1.1" id="Layer_1" xmlns="http://www.w3.org/2000/svg" xmlns:xlink="http://www.w3.org/1999/xlink" x="0px" y="0px"
	 viewBox="0 0 263.3 56.8" style="enable-background:new 0 0 263.3 56.8;" xml:space="preserve">
<style type="text/css">
	.st0{fill:#F97561;}
	.st1{fill:#2C2524;}
	.st2{enable-background:new    ;}
</style>
<g>
	<path class="st0" d="M35,52.5c3.7,0,6.6-2.9,6.6-6.5c0-0.7-0.5-1.2-1.2-1.2c-0.6,0-1.2,0.5-1.2,1.2c0,2.3-1.9,4.1-4.2,4.1
		c-0.7,0-1.2,0.5-1.2,1.2C33.8,52,34.3,52.5,35,52.5z"/>
	<path class="st1" d="M27.8,27.1c0.2,0,0.5,0.1,0.7,0.2l13.2,10.2c2.7,2,4.3,5.1,4.3,8.5c0,5.9-4.9,10.8-11,10.8
		c-2.7,0-5.3-1-7.3-2.7c-2,1.7-4.6,2.7-7.2,2.7c-6,0-11-4.8-11-10.8c0-3.2,1.5-6.2,4-8.3l13.6-10.4C27.3,27.1,27.5,27.1,27.8,27.1z
		 M35,54.3c4.7,0,8.5-3.8,8.5-8.3c0-2.6-1.2-5-3.3-6.6l-12.5-9.7l-12.6,9.9C13.2,41.2,12,43.5,12,46c0,4.6,3.8,8.3,8.5,8.3
		c2.4,0,4.7-1.1,6.3-2.8c0.2-0.2,0.6-0.4,0.9-0.4c0.4,0,0.7,0.2,0.9,0.4C30.2,53.3,32.5,54.3,35,54.3z"/>
</g>
<g class="st2">
	<path d="M84.7,28.2c-0.5,0.9-1.3,1.7-2.3,2.2c-1.1,0.6-2.4,0.8-4,0.8h-3.3v7.5h-3.9V19.2h7.2c1.5,0,2.8,0.3,3.9,0.8
		c1.1,0.5,1.9,1.2,2.4,2.2s0.8,2,0.8,3.1C85.5,26.3,85.2,27.3,84.7,28.2z M80.6,27.3c0.5-0.5,0.8-1.2,0.8-2.1c0-1.9-1.1-2.9-3.2-2.9
		h-3.1v5.7h3.1C79.3,28.1,80.1,27.8,80.6,27.3z"/>
	<path d="M88.2,26.8c0.6-1.2,1.5-2.1,2.5-2.8c1.1-0.7,2.3-1,3.6-1c1.2,0,2.2,0.2,3,0.7s1.6,1.1,2.1,1.8v-2.2h4v15.5h-4v-2.3
		c-0.5,0.7-1.2,1.3-2.1,1.8c-0.9,0.5-1.9,0.7-3.1,0.7c-1.3,0-2.5-0.3-3.6-1c-1.1-0.7-1.9-1.6-2.5-2.8c-0.6-1.2-0.9-2.6-0.9-4.2
		C87.2,29.4,87.5,28,88.2,26.8z M98.9,28.6c-0.4-0.7-0.9-1.2-1.5-1.6c-0.6-0.4-1.3-0.5-2-0.5s-1.4,0.2-2,0.5s-1.1,0.9-1.5,1.6
		s-0.6,1.5-0.6,2.4c0,0.9,0.2,1.8,0.6,2.5s0.9,1.2,1.5,1.6c0.6,0.4,1.3,0.6,2,0.6c0.7,0,1.4-0.2,2-0.5c0.6-0.4,1.1-0.9,1.5-1.6
		c0.4-0.7,0.6-1.5,0.6-2.5C99.4,30.1,99.2,29.2,98.9,28.6z"/>
	<path d="M111.8,26.5V34c0,0.5,0.1,0.9,0.4,1.1c0.3,0.2,0.7,0.4,1.3,0.4h1.8v3.3h-2.5c-3.3,0-5-1.6-5-4.8v-7.5H106v-3.2h1.8v-3.8h4
		v3.8h3.5v3.2H111.8z"/>
	<path d="M118.4,20.7c-0.5-0.4-0.7-1-0.7-1.6c0-0.7,0.2-1.2,0.7-1.6c0.5-0.4,1-0.7,1.7-0.7c0.7,0,1.3,0.2,1.7,0.7
		c0.5,0.4,0.7,1,0.7,1.6c0,0.7-0.2,1.2-0.7,1.6c-0.5,0.4-1,0.7-1.7,0.7C119.4,21.4,118.8,21.2,118.4,20.7z M122,23.2v15.5h-3.9V23.2
		H122z"/>
	<path d="M130.4,26.5V34c0,0.5,0.1,0.9,0.4,1.1c0.3,0.2,0.7,0.4,1.3,0.4h1.8v3.3h-2.5c-3.3,0-5-1.6-5-4.8v-7.5h-1.8v-3.2h1.8v-3.8h4
		v3.8h3.5v3.2H130.4z"/>
	<path d="M136.7,26.8c0.6-1.2,1.5-2.1,2.5-2.8c1.1-0.7,2.3-1,3.6-1c1.2,0,2.2,0.2,3,0.7s1.6,1.1,2.1,1.8v-2.2h4v15.5h-4v-2.3
		c-0.5,0.7-1.2,1.3-2.1,1.8c-0.9,0.5-1.9,0.7-3.1,0.7c-1.3,0-2.5-0.3-3.6-1c-1.1-0.7-1.9-1.6-2.5-2.8c-0.6-1.2-0.9-2.6-0.9-4.2
		C135.7,29.4,136.1,28,136.7,26.8z M147.4,28.6c-0.4-0.7-0.9-1.2-1.5-1.6c-0.6-0.4-1.3-0.5-2-0.5s-1.4,0.2-2,0.5s-1.1,0.9-1.5,1.6
		s-0.6,1.5-0.6,2.4c0,0.9,0.2,1.8,0.6,2.5s0.9,1.2,1.5,1.6c0.6,0.4,1.3,0.6,2,0.6c0.7,0,1.4-0.2,2-0.5c0.6-0.4,1.1-0.9,1.5-1.6
		c0.4-0.7,0.6-1.5,0.6-2.5C148,30.1,147.8,29.2,147.4,28.6z"/>
	<path d="M158.3,38.3c-1-0.5-1.8-1.1-2.4-1.9c-0.6-0.8-0.9-1.7-1-2.6h4c0.1,0.6,0.4,1.1,0.9,1.5c0.5,0.4,1.2,0.6,1.9,0.6
		c0.7,0,1.3-0.1,1.8-0.4c0.4-0.3,0.6-0.7,0.6-1.1c0-0.5-0.3-0.9-0.8-1.1c-0.5-0.3-1.3-0.5-2.5-0.8c-1.2-0.3-2.1-0.6-2.8-0.9
		c-0.7-0.3-1.4-0.8-1.9-1.4c-0.5-0.6-0.8-1.4-0.8-2.5c0-0.9,0.2-1.6,0.7-2.4c0.5-0.7,1.2-1.3,2.1-1.7c0.9-0.4,2-0.6,3.3-0.6
		c1.8,0,3.3,0.5,4.4,1.4c1.1,0.9,1.7,2.2,1.8,3.7h-3.8c-0.1-0.6-0.3-1.1-0.8-1.5c-0.5-0.4-1.1-0.5-1.8-0.5c-0.7,0-1.3,0.1-1.6,0.4
		c-0.4,0.3-0.6,0.6-0.6,1.1c0,0.5,0.3,0.9,0.8,1.2c0.5,0.3,1.3,0.5,2.4,0.8c1.1,0.3,2,0.6,2.8,0.9c0.7,0.3,1.4,0.8,1.9,1.4
		c0.5,0.6,0.8,1.5,0.8,2.5c0,0.9-0.2,1.7-0.7,2.4c-0.5,0.7-1.2,1.3-2.1,1.7c-0.9,0.4-2,0.6-3.2,0.6C160.4,39,159.3,38.8,158.3,38.3z
		"/>
	<path d="M180.8,38.3c-1.1-0.5-2-1.1-2.6-2c-0.6-0.9-1-1.9-1-3.1h4.2c0.1,0.8,0.3,1.4,0.9,1.9c0.5,0.5,1.2,0.7,2.1,0.7
		c0.9,0,1.6-0.2,2.2-0.7c0.5-0.4,0.8-1,0.8-1.7c0-0.6-0.2-1.1-0.5-1.4c-0.4-0.4-0.8-0.7-1.3-0.9c-0.5-0.2-1.3-0.5-2.2-0.7
		c-1.3-0.4-2.3-0.7-3.1-1.1c-0.8-0.4-1.5-0.9-2-1.7c-0.6-0.7-0.9-1.7-0.9-3c0-1.2,0.3-2.2,0.9-3c0.6-0.9,1.4-1.5,2.4-2
		c1-0.5,2.2-0.7,3.6-0.7c2,0,3.7,0.5,4.9,1.5s2,2.3,2.1,4.1h-4.3c0-0.7-0.3-1.2-0.9-1.7c-0.5-0.4-1.2-0.7-2.1-0.7
		c-0.8,0-1.4,0.2-1.8,0.6c-0.5,0.4-0.7,1-0.7,1.7c0,0.5,0.2,1,0.5,1.3c0.3,0.3,0.8,0.6,1.3,0.8s1.2,0.5,2.2,0.7
		c1.3,0.4,2.3,0.7,3.1,1.1c0.8,0.4,1.5,0.9,2.1,1.7c0.6,0.7,0.9,1.7,0.9,2.9c0,1-0.3,2-0.8,2.9c-0.5,0.9-1.3,1.6-2.4,2.1
		s-2.3,0.8-3.7,0.8C183.1,39,181.8,38.7,180.8,38.3z"/>
	<path d="M194.7,26.8c0.6-1.2,1.5-2.1,2.5-2.8c1.1-0.7,2.3-1,3.6-1c1.2,0,2.2,0.2,3,0.7c0.9,0.5,1.6,1.1,2.1,1.8v-2.2h4v15.5h-4
		v-2.3c-0.5,0.7-1.2,1.3-2.1,1.8c-0.9,0.5-1.9,0.7-3.1,0.7c-1.3,0-2.5-0.3-3.6-1c-1.1-0.7-1.9-1.6-2.5-2.8c-0.6-1.2-0.9-2.6-0.9-4.2
		C193.7,29.4,194.1,28,194.7,26.8z M205.4,28.6c-0.4-0.7-0.9-1.2-1.5-1.6s-1.3-0.5-2-0.5s-1.4,0.2-2,0.5s-1.1,0.9-1.5,1.6
		s-0.6,1.5-0.6,2.4c0,0.9,0.2,1.8,0.6,2.5s0.9,1.2,1.5,1.6c0.6,0.4,1.3,0.6,2,0.6c0.7,0,1.4-0.2,2-0.5s1.1-0.9,1.5-1.6
		c0.4-0.7,0.6-1.5,0.6-2.5C206,30.1,205.8,29.2,205.4,28.6z"/>
	<path d="M226.8,24.8c1.1,1.2,1.7,2.8,1.7,4.9v9.1h-3.9v-8.6c0-1.2-0.3-2.2-0.9-2.8s-1.5-1-2.5-1c-1.1,0-1.9,0.3-2.6,1
		c-0.6,0.7-0.9,1.6-0.9,2.8v8.6h-3.9V23.2h3.9v1.9c0.5-0.7,1.2-1.2,2-1.6s1.7-0.6,2.7-0.6C224.2,23,225.7,23.6,226.8,24.8z"/>
	<path d="M232.2,26.8c0.6-1.2,1.5-2.1,2.5-2.8c1.1-0.7,2.3-1,3.6-1c1.2,0,2.2,0.2,3,0.7c0.9,0.5,1.6,1.1,2.1,1.8v-2.2h4v15.5h-4
		v-2.3c-0.5,0.7-1.2,1.3-2.1,1.8c-0.9,0.5-1.9,0.7-3.1,0.7c-1.3,0-2.5-0.3-3.6-1c-1.1-0.7-1.9-1.6-2.5-2.8c-0.6-1.2-0.9-2.6-0.9-4.2
		C231.3,29.4,231.6,28,232.2,26.8z M242.9,28.6c-0.4-0.7-0.9-1.2-1.5-1.6s-1.3-0.5-2-0.5s-1.4,0.2-2,0.5s-1.1,0.9-1.5,1.6
		s-0.6,1.5-0.6,2.4c0,0.9,0.2,1.8,0.6,2.5s0.9,1.2,1.5,1.6c0.6,0.4,1.3,0.6,2,0.6c0.7,0,1.4-0.2,2-0.5s1.1-0.9,1.5-1.6
		c0.4-0.7,0.6-1.5,0.6-2.5C243.5,30.1,243.3,29.2,242.9,28.6z"/>
	<path d="M253.8,38.3c-1-0.5-1.8-1.1-2.4-1.9c-0.6-0.8-0.9-1.7-1-2.6h4c0.1,0.6,0.4,1.1,0.9,1.5s1.2,0.6,1.9,0.6
		c0.7,0,1.3-0.1,1.8-0.4c0.4-0.3,0.6-0.7,0.6-1.1c0-0.5-0.3-0.9-0.8-1.1s-1.3-0.5-2.5-0.8c-1.2-0.3-2.1-0.6-2.8-0.9
		c-0.7-0.3-1.4-0.8-1.9-1.4c-0.5-0.6-0.8-1.4-0.8-2.5c0-0.9,0.2-1.6,0.7-2.4c0.5-0.7,1.2-1.3,2.1-1.7s2-0.6,3.3-0.6
		c1.8,0,3.3,0.5,4.4,1.4c1.1,0.9,1.7,2.2,1.8,3.7h-3.8c-0.1-0.6-0.3-1.1-0.8-1.5c-0.5-0.4-1.1-0.5-1.8-0.5c-0.7,0-1.3,0.1-1.6,0.4
		s-0.6,0.6-0.6,1.1c0,0.5,0.3,0.9,0.8,1.2c0.5,0.3,1.3,0.5,2.4,0.8c1.1,0.3,2,0.6,2.8,0.9c0.7,0.3,1.4,0.8,1.9,1.4s0.8,1.5,0.8,2.5
		c0,0.9-0.2,1.7-0.7,2.4c-0.5,0.7-1.2,1.3-2.1,1.7c-0.9,0.4-2,0.6-3.2,0.6C255.9,39,254.8,38.8,253.8,38.3z"/>
</g>
<path d="M18.6,23.5c-1.4,0-2.9-0.6-4-1.6c-2.1-1.9-3.3-4.5-3.7-8c0-0.4-0.1-0.8-0.1-1.2v-0.5c0-2.1,0.4-4.2,1.2-6.1
	c0.8-1.9,1.9-3.3,3.3-4.2c1.1-0.7,2.2-1.1,3.3-1.1c1.3,0,2.5,0.5,3.7,1.4C23,2.7,23.5,3.4,24,4c1.5,2,2.3,4.5,2.4,7.4
	c0.1,3-0.4,5.5-1.5,7.8c-0.8,1.5-1.9,2.7-3.3,3.6C20.6,23.2,19.6,23.5,18.6,23.5z M18.6,2.9c-0.8,0-1.6,0.3-2.4,0.9
	c-0.7,0.6-1.3,1.3-1.8,2.4c-1.4,2.7-1.7,5.6-1,8.9c0.5,2.3,1.4,4,2.8,5.3c0.7,0.6,1.5,0.9,2.4,0.9l0,0c0.2,0,0.4,0,0.6-0.1
	c1.2-0.2,2.2-0.9,3.1-2.1c1.4-2,2-4.4,2-7.7c0-0.2-0.1-0.4-0.1-0.6c-0.1-0.7-0.2-1.5-0.4-2.3c-0.5-1.9-1.3-3.4-2.5-4.4
	C20.4,3.2,19.5,2.9,18.6,2.9z"/>
<path d="M9.2,35.1c-0.6,0-1.2-0.1-1.8-0.3c-2-0.7-3.6-2-5-4c-1.4-2-2.2-4.3-2.4-6.7c-0.1-1.5,0.1-2.8,0.7-4c0.9-1.8,2.5-2.8,4.4-2.8
	c0.6,0,1.3,0.1,1.9,0.4c1.7,0.6,3.1,1.7,4.5,3.5c1.7,2.2,2.7,4.8,2.7,7.5c0,1.6-0.2,2.7-0.7,3.7C12.7,34.1,11.1,35.1,9.2,35.1z
	 M5.2,19.5c-1.3,0-2.3,0.9-2.7,2.3c-0.3,1.1-0.3,2.3,0.1,3.8c0.3,1.5,0.9,2.8,1.9,4.2c1.1,1.5,2.3,2.5,3.8,3C8.7,32.9,9,33,9.3,33
	c1.1,0,2-0.7,2.4-1.8c0.2-0.5,0.3-1.2,0.4-1.6c0-0.1,0-0.3,0.1-0.4c-0.1-2.4-0.7-4.4-2-6.4c-1-1.5-2.1-2.4-3.4-3
	C6.2,19.6,5.7,19.5,5.2,19.5z"/>
<path d="M36.1,23.4c-1.3,0-2.5-0.4-3.5-1.2c-1.9-1.5-3.1-3.5-3.8-6.2c-0.4-1.6-0.5-3.1-0.4-4.5c0-2.2,0.5-4.4,1.6-6.4
	c1-1.8,2.1-3,3.5-3.7c0.9-0.4,1.8-0.7,2.6-0.7c1.2,0,2.3,0.4,3.3,1.2c2.2,1.6,3.5,3.8,4.1,7c0.6,2.9,0.4,5.8-0.6,8.7
	c-0.7,2.1-1.9,3.6-3.4,4.8C38.5,23,37.3,23.4,36.1,23.4z M30.4,12c0,0.3,0.1,0.6,0.1,1c0.1,0.8,0.2,1.5,0.3,2.2
	c0.4,2,1.2,3.5,2.3,4.6c0.9,0.9,1.9,1.4,2.9,1.4l0,0c1,0,1.9-0.4,2.7-1.2c0.6-0.6,1.1-1.2,1.4-1.8c1.6-3.1,1.9-6.4,1-9.8
	C40.5,6.3,39.8,5,38.6,4c-0.8-0.7-1.7-1-2.5-1c-0.5,0-1,0.1-1.5,0.4c-0.8,0.4-1.5,1-2.2,2.1C31.2,7.1,30.6,9.2,30.4,12z"/>
<path d="M46.1,35.5c-0.3,0-0.7,0-1-0.1c-1.6-0.3-2.7-1.4-3.5-3.2c-0.5-1.1-0.5-2.2-0.5-3.4c0-2.4,0.7-4.6,2.1-6.9
	c1-1.6,2.3-2.9,3.7-3.8c1.1-0.7,2.1-1,3.1-1c0.4,0,0.8,0,1.2,0.1c1.7,0.4,2.9,1.7,3.6,3.6c0.5,1.5,0.4,2.9,0.3,4.2
	c-0.3,2.1-1.1,4.2-2.4,6.2c-1.1,1.7-2.5,2.9-4.1,3.6C47.7,35.3,46.9,35.5,46.1,35.5z M50.1,19.3c-1,0.1-1.9,0.4-2.8,1.1
	c-2.1,1.7-3.5,4.1-4,6.9c-0.3,1.7-0.2,3.1,0.4,4.3c0.4,1,1.1,1.5,2.2,1.6c0.1,0,0.2,0,0.2,0c0.8,0,1.6-0.3,2.3-0.8
	c2.9-2.2,4.4-5.1,4.6-9c0-0.9-0.1-1.6-0.4-2.3C52.1,19.9,51.2,19.2,50.1,19.3L50.1,19.3z"/>
</svg>
